<!DOCTYPE svg PUBLIC "-//W3C//DTD SVG 1.1//EN" "http://www.w3.org/Graphics/SVG/1.1/DTD/svg11.dtd">
<!-- Uploaded to: SVG Repo, www.svgrepo.com, Transformed by: SVG Repo Mixer Tools -->
<svg fill="#000000" height="800px" width="800px" version="1.1" id="Layer_1" xmlns="http://www.w3.org/2000/svg" xmlns:xlink="http://www.w3.org/1999/xlink" viewBox="0 0 512.183 512.183" xml:space="preserve">
<g id="SVGRepo_bgCarrier" stroke-width="0"/>
<g id="SVGRepo_tracerCarrier" stroke-linecap="round" stroke-linejoin="round"/>
<g id="SVGRepo_iconCarrier"> <g> <g> <g> <path d="M507.768,316.26c-15.095-21.402-30.191-21.905-68.48-1.758l-73.583,44.988c-5.256,2.799-13.184,4.642-22.417,5.845 c-9.31,1.22-17.792,5.231-26.223,9.361c-1.126,0.555-2.398,0.862-3.738,0.862H230.4c-25.6,0-25.6,12.843-25.6,17.067 c0,4.71-3.823,8.533-8.533,8.533s-8.533-3.823-8.533-8.533c0-21.376,15.949-34.133,42.667-34.133h82.253 c-0.009-5.931-2.355-12.476-7.117-19.584c-13.363-19.951-36.292-31.855-61.321-31.855h-33.289 c-18.074,0-35.447-5.589-48.896-15.727c-30.626-23.091-78.788,1.86-102.298,16.802v-17.903H0v221.867h59.733v-25.6H170.65 c17.476,0,34.927-1.323,52.207-3.942l110.618-16.819c4.019-0.051,8.107-0.529,11.733-1.348 c10.197-1.434,19.934-6.298,28.186-14.08l129.34-100.727l0.205-0.162C513.024,341.391,515.2,326.79,507.768,316.26z M42.667,320.151v166.34v8.533h-25.6V307.292h25.6V320.151z"/> <path d="M179.2,127.392v137.233c0,2.295,0.922,4.489,2.56,6.093l26.103,25.6c1.596,1.562,3.738,2.441,5.973,2.441h0.085 c2.261-0.017,4.42-0.939,6.008-2.56l25.096-25.6c1.562-1.596,2.441-3.738,2.441-5.973v-8.533c0-2.261-0.896-4.437-2.5-6.033 l-11.034-11.034l11.034-11.034c1.604-1.596,2.5-3.772,2.5-6.033v-0.205l62.353,62.353c4.71,4.71,10.829,7.1,16.785,7.1 c5.402,0,10.675-1.963,14.643-5.939l70.929-70.929c4.122-4.122,6.281-9.95,5.914-15.983c-0.341-5.743-2.85-11.23-7.074-15.445 l-76.561-76.561c4.437-9.207,6.878-19.234,6.878-29.457c0-37.641-30.626-68.267-68.267-68.267 c-7.245,0-14.336,1.195-21.188,3.447c-10.974-7.543-24.252-11.981-38.545-11.981c-37.641,0-68.267,30.626-68.267,68.267 C145.067,93.557,158.831,115.565,179.2,127.392z M230.4,218.425l-14.566,14.566c-3.337,3.337-3.337,8.73,0,12.066l14.566,14.566 v1.519l-16.683,17.015l-17.451-17.118V134.44c0.41,0.102,0.828,0.162,1.246,0.256c1.263,0.307,2.534,0.58,3.831,0.811 c1.033,0.179,2.082,0.333,3.123,0.478c1.101,0.137,2.193,0.265,3.302,0.358c0.495,0.043,0.981,0.128,1.476,0.162l6.11,40.636 c1.425,9.489,6.084,18.586,13.124,25.626l1.92,1.92V218.425z M343.834,207.392c3.336-3.337,8.73-3.337,12.066,0 c3.336,3.336,3.336,8.73,0,12.066l-25.6,25.6c-1.664,1.664-3.849,2.5-6.033,2.5c-2.185,0-4.369-0.836-6.033-2.5 c-3.336-3.337-3.336-8.73,0-12.066L343.834,207.392z M330.3,193.858l-25.6,25.6c-1.664,1.664-3.849,2.5-6.033,2.5 c-2.185,0-4.369-0.836-6.033-2.5c-3.337-3.337-3.337-8.73,0-12.066l25.6-25.6c3.337-3.337,8.73-3.337,12.066,0 C333.636,185.128,333.636,190.521,330.3,193.858z M273.067,25.692c28.237,0,51.2,22.963,51.2,51.2 c0,6.101-1.109,12.134-3.243,17.835c-0.427-0.256-0.896-0.401-1.331-0.648c-1.707-0.973-3.456-1.818-5.257-2.569 c-0.802-0.333-1.57-0.708-2.381-0.99c-2.62-0.922-5.282-1.664-8.004-2.074l-24.439-3.678c0.094-0.384,0.128-0.785,0.213-1.178 c0.393-1.715,0.7-3.439,0.956-5.188c0.119-0.794,0.265-1.57,0.358-2.372c0.282-2.534,0.461-5.086,0.461-7.671 c0-2.176-0.128-4.326-0.324-6.468c-0.068-0.657-0.171-1.297-0.247-1.946c-0.188-1.493-0.401-2.978-0.683-4.446 c-0.137-0.7-0.29-1.382-0.444-2.065c-0.324-1.451-0.691-2.884-1.109-4.301c-0.171-0.597-0.35-1.195-0.538-1.792 c-0.512-1.587-1.092-3.149-1.724-4.685c-0.154-0.384-0.29-0.768-0.444-1.143c-1.69-3.942-3.738-7.723-6.153-11.281 c-0.026-0.034-0.043-0.06-0.068-0.085c-0.939-1.391-1.92-2.765-2.97-4.087C268.937,25.82,270.993,25.692,273.067,25.692z M213.333,17.158c12.083,0,23.185,4.233,31.957,11.264c2.918,2.338,5.53,4.949,7.834,7.782c0.384,0.469,0.725,0.973,1.092,1.468 c0.691,0.913,1.374,1.835,1.997,2.79c0.427,0.666,0.828,1.348,1.229,2.022c0.495,0.845,0.981,1.698,1.425,2.569 c0.375,0.742,0.742,1.485,1.084,2.244c0.401,0.887,0.768,1.783,1.118,2.688c0.29,0.759,0.58,1.519,0.845,2.295 c0.316,0.973,0.589,1.971,0.853,2.97c0.196,0.734,0.41,1.459,0.572,2.21c0.256,1.161,0.435,2.347,0.606,3.533 c0.085,0.614,0.213,1.212,0.273,1.826c0.205,1.826,0.316,3.678,0.316,5.538c0,2.116-0.171,4.215-0.427,6.289 c-0.077,0.606-0.179,1.203-0.273,1.801c-0.247,1.57-0.572,3.123-0.964,4.659c-0.094,0.367-0.179,0.734-0.282,1.101l-22.904-3.439 c-6.263-0.956-12.271,0.094-17.596,2.577c-0.128-1.468-0.222-2.953-0.222-4.454c0-7.68,1.655-15.061,4.924-21.939 c2.014-4.25,0.205-9.344-4.053-11.366c-4.25-2.031-9.353-0.205-11.366,4.053c-4.361,9.182-6.571,19.021-6.571,29.252 c0,6.801,1.033,13.363,2.893,19.567c-1.178,2.876-2.065,5.879-2.295,9.079c-0.179,2.364-0.085,4.787,0.282,7.236l0.939,6.298 c-0.205-0.034-0.418-0.068-0.623-0.094c-2.594-0.375-5.103-0.964-7.552-1.707c-0.41-0.128-0.836-0.205-1.237-0.35 c-20.352-6.775-35.072-25.967-35.072-48.563C162.133,40.121,185.097,17.158,213.333,17.158z"/> </g> </g> </g> </g>
</svg>